# xmcd CD database file
#
# Track frame offsets:
#	150
#	10238
#	39760
#	77282
#	88261
#	120282
#	159171
#	179415
#	204059
#	237124
#	276731
#	285036
#	308790
#
# Disc length: 4209 seconds
#
# Revision: 0
# Processed by: cddbd v1.5.2PL0 Copyright (c) Steve Scherf et al.
# Submitted via: CDex 1.51
#
DISCID=90106f0d
DTITLE=Leszek Kulakowski Ensemble piccolo - Code Numbers
DYEAR=2010
DGENRE=Jazz
TTITLE0=Free IV
TTITLE1=52442
TTITLE2=3/4
TTITLE3=Free III
TTITLE4=Dolina Charlotty
TTITLE5=7777
TTITLE6=66665
TTITLE7=44244
TTITLE8=3-5-7
TTITLE9=55255
TTITLE10=Free IV
TTITLE11=12122222
TTITLE12=Free I
EXTD=YEAR: 2010
EXTT0=
EXTT1=
EXTT2=
EXTT3=
EXTT4=
EXTT5=
EXTT6=
EXTT7=
EXTT8=
EXTT9=
EXTT10=
EXTT11=
EXTT12=
PLAYORDER=
